:SAMPLES-PER-SECOND 30
:FULLY-SPECIFIED
:DEGREES
10
root  34.90062924 36.55555905 -14.64188043 9.522462845 -4.112518311 3.058697939
lowerback  -8.869330406 -0.1295789182 -0.1759823114
upperback  -3.735249519 0.2958999872 -3.138600111
thorax  1.11342001 0.2981590033 -3.114510059
lowerneck  -14.95899963 -4.561590195 -3.596179962
upperneck  15.67199993 -6.439849854 6.651440144
head  7.632559776 -2.559999943 2.076440096
lclavicle  0 -4.497500157e-015 -2.743230041e-014
lhumerus  -47.84010696 31.0364418 63.27259445
lradius  0.00954947155 -6.507048965e-006 29.55529976
lwrist  3.192251654e-007 -3.790274832e-007 -28.51230049
lhand  -3.515513696e-031 -36.87730026 -10.6899004
lfingers  90 7.125020027 -90
lthumb  94.80857849 -25.52620697 101.0461121
rclavicle  0 -4.497500157e-015 -2.743230041e-014
rhumerus  -54.46700287 -43.36500168 -44.71849442
rradius  -5.16745672e-007 2.214343908e-008 38.01860046
rwrist  0.0006954420824 -0.004670973402 -142.7779999
rhand  -3.001985446e-031 -2.338920116 -7.915380001
rfingers  -90 -7.125020027 -90
rthumb  -86.61810303 -7.781740665 -66.4216156
rfemur  -12.55897903 15.89221382 12.94778061
rtibia  -0.5359843373 -0.5853540301 19.94491005
rfoot  0.3575637341 -21.28376389 -36.76750565
rtoes  4.121983051 19.59800148 -102.1319275
lfemur  -8.525511742 -15.86728859 -19.6512661
ltibia  2.511589766 0.1215934455 14.09807205
lfoot  0.3933295906 -25.16268349 35.92638397
ltoes  -8.793283463 -18.03476524 -116.5489273
11
root  34.90082148 36.55548696 -14.64106943 9.514178276 -4.115461826 3.057830811
lowerback  -8.88506031 -0.1382590234 -0.1984350085
upperback  -3.734843969 0.2886550128 -3.16147995
thorax  1.126039982 0.2953689992 -3.12631011
lowerneck  -15.00629997 -4.560249805 -3.506299973
upperneck  15.68500042 -6.450910091 6.61093998
head  7.64136982 -2.562299967 2.04640007
lclavicle  0 -4.497500157e-015 -2.743230041e-014
lhumerus  -47.83919907 31.06299973 63.20470047
lradius  0.00954947155 -6.507048965e-006 29.5576992
lwrist  3.192251654e-007 -3.790274832e-007 -28.5807991
lhand  -3.511569336e-031 -36.87680054 -10.73750019
lfingers  90 7.125020027 -90
lthumb  94.81847382 -25.57306671 101.0499268
rclavicle  0 -4.497500157e-015 -2.743230041e-014
rhumerus  -54.11880493 -42.93289948 -45.31089783
rradius  -5.16745672e-007 2.214343908e-008 38.51810074
rwrist  0.0006954420824 -0.004670973402 -143.0330048
rhand  -3.000466838e-031 -2.318650007 -7.938169956
rfingers  -90 -7.125020027 -90
rthumb  -86.62369537 -7.761900902 -66.40319061
rfemur  -12.52928162 15.92196083 12.94507122
rtibia  -0.5353798866 -0.607383728 19.90613365
rfoot  0.3673470914 -21.31716728 -36.79187775
rtoes  4.11669445 19.59938049 -102.1161575
lfemur  -8.553322792 -15.8788147 -19.6406517
ltibia  2.488049984 0.1155937165 14.15613079
lfoot  0.4036760926 -25.18676758 35.929039
ltoes  -8.772973061 -18.04440117 -116.483345
12
root  34.9010017 36.55549598 -14.63948798 9.517519951 -4.099971294 3.06470871
lowerback  -8.871850014 -0.1561609954 -0.2175799459
upperback  -3.734757423 0.2668859959 -3.167150021
thorax  1.11469996 0.2848350108 -3.129297733
lowerneck  -14.9993 -4.56182003 -3.45953989
upperneck  15.65390015 -6.458740234 6.588689804
head  7.62801981 -2.566459894 2.030590057
lclavicle  0 -4.497500157e-015 -2.743230041e-014
lhumerus  -47.86159897 31.06669998 63.18159866
lradius  0.00954947155 -6.507048965e-006 29.57789993
lwrist  3.192251654e-007 -3.790274832e-007 -28.57690048
lhand  -3.514326284e-031 -36.92810059 -10.69699955
lfingers  90 7.125020027 -90
lthumb  94.83393097 -25.53141212 101.1011124
rclavicle  0 -4.497500157e-015 -2.743230041e-014
rhumerus  -53.93759918 -42.53300095 -45.73249817
rradius  -5.16745672e-007 2.214343908e-008 38.93090057
rwrist  0.0006954420824 -0.004670973402 -144.2319946
rhand  -3.004440254e-031 -2.416990042 -7.878280163
rfingers  -90 -7.125020027 -90
rthumb  -86.61721039 -7.811462402 -66.49557495
rfemur  -12.5109024 15.91714382 12.93306065
rtibia  -0.5346904397 -0.6179372072 19.88429451
rfoot  0.3619105518 -21.33450699 -36.82490158
rtoes  4.115381241 19.60074043 -102.112236
lfemur  -8.543152809 -15.90671349 -19.65611649
ltibia  2.502911806 0.09885463119 14.1357708
lfoot  0.3992899656 -25.13816071 35.93150711
ltoes  -8.711322784 -18.07347488 -116.2844696
13
root  34.90115489 36.55557107 -14.6375581 9.522911072 -4.107319832 3.077663183
lowerback  -8.860676765 -0.1541610807 -0.2228979766
upperback  -3.734993696 0.2699640095 -3.174910069
thorax  1.109680057 0.280916661 -3.128495455
lowerneck  -15.00049973 -4.582530022 -3.45223999
upperneck  15.63389969 -6.490240097 6.600709915
head  7.623569965 -2.580250025 2.029649973
lclavicle  0 -4.497500157e-015 -2.743230041e-014
lhumerus  -47.83720016 30.98810005 63.2201004
lradius  0.00954947155 -6.507048965e-006 29.59070015
lwrist  3.192251654e-007 -3.790274832e-007 -28.45849991
lhand  -3.514479114e-031 -36.97710037 -10.6882
lfingers  90 7.125020027 -90
lthumb  94.85499573 -25.52104759 101.1526337
rclavicle  0 -4.497500157e-015 -2.743230041e-014
rhumerus  -53.6928978 -42.04009628 -46.26310349
rradius  -5.16745672e-007 2.214343908e-008 39.47259903
rwrist  0.0006954420824 -0.004670973402 -145.1640015
rhand  -3.007472933e-031 -2.46784997 -7.832709789
rfingers  -90 -7.125020027 -90
rthumb  -86.60807037 -7.85048151 -66.54259491
rfemur  -12.52499294 15.88225746 12.91103935
rtibia  -0.534019649 -0.6565869451 19.90221977
rfoot  0.3612883389 -21.41575432 -36.76416016
rtoes  4.089607716 19.60203552 -102.0353775
lfemur  -8.527799606 -15.8503418 -19.67954826
ltibia  2.522117138 0.1157257035 14.08932495
lfoot  0.3875652552 -25.1548481 35.8936348
ltoes  -8.664160728 -18.09554482 -116.1325455
14
root  34.90128405 36.55570323 -14.6356868 9.54033947 -4.091498375 3.072835922
lowerback  -8.833660126 -0.1606380492 -0.239534989
upperback  -3.735556841 0.2628009915 -3.184910059
thorax  1.093219995 0.2795136571 -3.125820875
lowerneck  -14.96780014 -4.606160164 -3.458410025
upperneck  15.57250023 -6.520160675 6.601099968
head  7.599500179 -2.59758997 2.027709961
lclavicle  0 -4.497500157e-015 -2.743230041e-014
lhumerus  -47.84780121 31.02589989 63.17200089
lradius  0.00954947155 -6.507048965e-006 29.5576992
lwrist  3.192251654e-007 -3.790274832e-007 -28.49769974
lhand  -3.513897993e-031 -36.92850113 -10.7020998
lfingers  90 7.125020027 -90
lthumb  94.83520508 -25.53638268 101.1020279
rclavicle  0 -4.497500157e-015 -2.743230041e-014
rhumerus  -53.34980011 -41.45289993 -46.90219879
rradius  -5.16745672e-007 2.214343908e-008 40.1731987
rwrist  0.0006954420824 -0.004670973402 -145.4660034
rhand  -3.000498949e-031 -2.5369699 -7.936399937
rfingers  -90 -7.125020027 -90
rthumb  -86.66210938 -7.751510143 -66.6155014
rfemur  -12.53812313 15.82892036 12.91855526
rtibia  -0.5334711075 -0.614027977 19.90329933
rfoot  0.3798158765 -21.32089043 -36.7231102
rtoes  4.110411644 19.60322762 -102.0974197
lfemur  -8.517040253 -15.84357452 -19.67693329
ltibia  2.539343596 0.1420523673 14.04634094
lfoot  0.3820476234 -25.18320084 35.88339233
ltoes  -8.671041489 -18.09233475 -116.1546936
15
root  34.90137716 36.55587745 -14.63433964 9.538440704 -4.09022665 3.066345453
lowerback  -8.837129593 -0.1491339803 -0.2483253032
upperback  -3.736451149 0.2787140012 -3.186650038
thorax  1.102270007 0.2790403962 -3.123191833
lowerneck  -14.94569969 -4.641489983 -3.519789934
upperneck  15.51029968 -6.559669971 6.633100033
head  7.58054018 -2.619790077 2.043849945
lclavicle  0 -4.497500157e-015 -2.743230041e-014
lhumerus  -47.83539963 31.04030037 63.18830109
lradius  0.00954947155 -6.507048965e-006 29.54899979
lwrist  3.192251654e-007 -3.790274832e-007 -28.50200081
lhand  -3.51281196e-031 -36.8995018 -10.71930027
lfingers  90 7.125020027 -90
lthumb  94.82524872 -25.55434418 101.0725403
rclavicle  0 -4.497500157e-015 -2.743230041e-014
rhumerus  -53.09289932 -40.86790085 -47.45240402
rradius  -5.16745672e-007 2.214343908e-008 40.81990051
rwrist  0.0006954420824 -0.004670973402 -146.621994
rhand  -2.994559073e-031 -2.657360077 -8.024319649
rfingers  -90 -7.125020027 -90
rthumb  -86.71858978 -7.664238453 -66.73734283
rfemur  -12.53753853 15.83896542 12.92766476
rtibia  -0.5331484079 -0.600643158 19.90562057
rfoot  0.3946706653 -21.29751015 -36.69173431
rtoes  4.091489315 19.60427094 -102.0409851
lfemur  -8.486346245 -15.87967396 -19.68278503
ltibia  2.553020716 0.1308873296 14.01397514
lfoot  0.3782992363 -25.13801193 35.92191315
ltoes  -8.704645157 -18.07661057 -116.2629471
16
root  34.90142822 36.5560877 -14.63288285 9.515936852 -4.083275318 3.072646379
lowerback  -8.85766983 -0.1581139714 -0.2754643559
upperback  -3.737680435 0.2719190121 -3.202970028
thorax  1.109140038 0.2792830467 -3.122525215
lowerneck  -14.9229002 -4.643939972 -3.457429886
upperneck  15.44200039 -6.572680473 6.622570038
head  7.552400112 -2.625590086 2.029050112
lclavicle  0 -4.497500157e-015 -2.743230041e-014
lhumerus  -47.82839966 31.03019905 63.15599823
lradius  0.00954947155 -6.507048965e-006 29.54189873
lwrist  3.192251654e-007 -3.790274832e-007 -28.47529984
lhand  -3.516790879e-031 -36.88869858 -10.6729002
lfingers  90 7.125020027 -90
lthumb  94.81034088 -25.5091877 101.0567932
rclavicle  0 -4.497500157e-015 -2.743230041e-014
rhumerus  -52.74259949 -40.26779938 -48.15739822
rradius  -5.16745672e-007 2.214343908e-008 41.56100082
rwrist  0.0006954420824 -0.004670973402 -147.0570068
rhand  -2.992411417e-031 -2.554709911 -8.057049751
rfingers  -90 -7.125020027 -90
rthumb  -86.71352386 -7.63986063 -66.63920593
rfemur  -12.49717808 15.82284164 12.93076038
rtibia  -0.5331549644 -0.5919010639 19.88715935
rfoot  0.3679558039 -21.28106117 -36.77960205
rtoes  4.101608276 19.60512733 -102.0711594
lfemur  -8.439861298 -15.88755703 -19.70759201
ltibia  2.576366186 0.1206069887 13.98142242
lfoot  0.3766014576 -25.10605049 35.91426086
ltoes  -8.757933617 -18.05151749 -116.4348068
